<svg width="131" height="35" viewBox="0 0 131 35" fill="none" xmlns="http://www.w3.org/2000/svg">
<path d="M16.524 18.62C16.188 19.58 15.876 20.432 15.588 21.176C15.3 21.92 15.024 22.628 14.76 23.3C14.76 23.324 14.748 23.36 14.724 23.408C14.7 23.432 14.688 23.456 14.688 23.48C14.52 23.888 14.352 24.308 14.184 24.74C14.016 25.172 13.836 25.616 13.644 26.072C13.476 26.456 13.248 26.924 12.96 27.476C12.696 28.028 12.408 28.604 12.096 29.204C12.072 29.252 12.048 29.3 12.024 29.348C12 29.42 11.964 29.492 11.916 29.564C11.628 30.092 11.352 30.608 11.088 31.112C10.824 31.616 10.596 32.036 10.404 32.372C10.236 32.66 10.056 32.936 9.864 33.2C9.672 33.464 9.468 33.692 9.252 33.884C8.94 34.244 8.628 34.52 8.316 34.712C8.004 34.904 7.752 35 7.56 35C7.44 35 7.344 34.964 7.272 34.892C7.2 34.844 7.152 34.736 7.128 34.568C7.128 34.568 7.128 34.556 7.128 34.532C7.128 34.532 7.128 34.52 7.128 34.496C7.128 34.472 7.128 34.448 7.128 34.424C7.128 34.184 7.14 33.92 7.164 33.632C7.188 33.344 7.224 33.056 7.272 32.768C7.272 32.648 7.272 32.528 7.272 32.408C7.296 32.288 7.308 32.168 7.308 32.048C7.332 31.856 7.344 31.664 7.344 31.472C7.368 31.28 7.38 31.088 7.38 30.896C7.38 30.656 7.704 30.08 8.352 29.168C9.024 28.28 9.84 26.672 10.8 24.344C10.2 24.92 9.504 25.376 8.712 25.712C7.92 26.024 7.116 26.204 6.3 26.252C6.228 26.252 6.156 26.252 6.084 26.252C6.036 26.252 5.988 26.252 5.94 26.252C4.476 26.252 3.144 25.736 1.944 24.704C0.768 23.672 0.18 21.992 0.18 19.664C0.18 19.64 0.18 19.616 0.18 19.592C0.18 19.544 0.18 19.508 0.18 19.484C0.18 19.46 0.18 19.436 0.18 19.412C0.18 19.364 0.18 19.328 0.18 19.304C0.204 18.464 0.312 17.588 0.504 16.676C0.72 15.74 0.996 14.816 1.332 13.904C2.364 11.096 3.912 8.468 5.976 6.02C8.04 3.548 10.212 1.964 12.492 1.268C12.828 1.148 13.176 1.064 13.536 1.016C13.896 0.943999 14.256 0.907999 14.616 0.907999C14.664 0.907999 14.712 0.907999 14.76 0.907999C14.832 0.907999 14.892 0.907999 14.94 0.907999C16.812 0.98 18.216 1.388 19.152 2.132C20.112 2.876 20.592 3.908 20.592 5.228C20.592 5.372 20.58 5.528 20.556 5.696C20.556 5.84 20.544 5.996 20.52 6.164C20.496 6.284 20.472 6.404 20.448 6.524C20.424 6.644 20.388 6.764 20.34 6.884C20.1 7.676 19.692 8.456 19.116 9.224C18.54 9.968 17.928 10.604 17.28 11.132C16.824 11.516 16.368 11.816 15.912 12.032C15.48 12.248 15.108 12.356 14.796 12.356C14.676 12.356 14.604 12.188 14.58 11.852C14.556 11.492 14.544 11.096 14.544 10.664C14.544 10.64 14.544 10.616 14.544 10.592C14.544 10.544 14.544 10.508 14.544 10.484C14.544 10.1 14.544 9.752 14.544 9.44C14.568 9.104 14.604 8.924 14.652 8.9C14.796 8.828 14.952 8.732 15.12 8.612C15.312 8.492 15.504 8.36 15.696 8.216C16.032 7.928 16.344 7.592 16.632 7.208C16.944 6.824 17.112 6.416 17.136 5.984C17.136 5.96 17.136 5.936 17.136 5.912C17.136 5.888 17.136 5.864 17.136 5.84C17.136 5.264 16.944 4.844 16.56 4.58C16.176 4.292 15.684 4.148 15.084 4.148C14.724 4.148 14.34 4.196 13.932 4.292C13.548 4.364 13.14 4.496 12.708 4.688C12.54 4.76 12.36 4.844 12.168 4.94C12 5.012 11.832 5.108 11.664 5.228C10.2 6.164 8.904 7.472 7.776 9.152C6.672 10.832 5.76 12.572 5.04 14.372C4.752 15.14 4.488 15.896 4.248 16.64C4.032 17.36 3.852 18.068 3.708 18.764C3.66 18.956 3.624 19.16 3.6 19.376C3.576 19.592 3.564 19.808 3.564 20.024C3.54 20.768 3.732 21.44 4.14 22.04C4.548 22.616 5.268 22.928 6.3 22.976C6.324 22.976 6.336 22.976 6.336 22.976C6.36 22.976 6.372 22.976 6.372 22.976C6.756 22.976 7.188 22.892 7.668 22.724C8.148 22.532 8.628 22.28 9.108 21.968C9.636 21.608 10.164 21.2 10.692 20.744C11.22 20.264 11.688 19.784 12.096 19.304C12.36 18.992 12.6 18.68 12.816 18.368C13.032 18.056 13.2 17.768 13.32 17.504C13.392 17.36 13.5 17.12 13.644 16.784C13.788 16.424 13.968 16.052 14.184 15.668C14.448 15.188 14.76 14.744 15.12 14.336C15.504 13.928 15.948 13.724 16.452 13.724C16.524 13.724 16.596 13.736 16.668 13.76C16.764 13.76 16.86 13.772 16.956 13.796C17.004 13.82 17.04 13.844 17.064 13.868C17.112 13.868 17.16 13.88 17.208 13.904C17.496 14 17.712 14.18 17.856 14.444C18.024 14.684 18.108 15.008 18.108 15.416C18.108 15.512 18.108 15.608 18.108 15.704C18.108 15.8 18.096 15.908 18.072 16.028C18 16.364 17.892 16.664 17.748 16.928C17.628 17.192 17.484 17.432 17.316 17.648C17.124 17.936 16.944 18.164 16.776 18.332C16.608 18.476 16.524 18.572 16.524 18.62ZM30.4079 22.832C30.4079 22.832 30.4079 22.844 30.4079 22.868C30.4319 22.868 30.4439 22.868 30.4439 22.868C30.4679 22.868 30.4919 22.868 30.5159 22.868C30.7079 22.892 31.1039 22.712 31.7039 22.328C32.3039 21.944 32.9399 21.488 33.6119 20.96C33.8039 20.816 33.9839 20.672 34.1519 20.528C34.3439 20.384 34.5239 20.228 34.6919 20.06C34.7159 20.036 34.7519 20.012 34.7999 19.988C34.8479 19.94 34.8839 19.904 34.9079 19.88C35.1239 19.688 35.2799 19.724 35.3759 19.988C35.4959 20.228 35.5559 20.552 35.5559 20.96C35.5559 21.032 35.5559 21.104 35.5559 21.176C35.5559 21.248 35.5559 21.308 35.5559 21.356C35.5319 21.548 35.4959 21.728 35.4479 21.896C35.4239 22.064 35.3879 22.208 35.3399 22.328C35.2439 22.568 35.0519 22.82 34.7639 23.084C34.4759 23.324 34.1399 23.564 33.7559 23.804C33.5639 23.948 33.3719 24.08 33.1799 24.2C32.9879 24.32 32.7839 24.44 32.5679 24.56C32.3519 24.68 32.1359 24.812 31.9199 24.956C31.7279 25.076 31.5359 25.196 31.3439 25.316C31.0319 25.508 30.7079 25.676 30.3719 25.82C30.0359 25.94 29.6999 26.024 29.3639 26.072C29.2439 26.096 29.1239 26.108 29.0039 26.108C28.9079 26.132 28.7999 26.144 28.6799 26.144C28.5599 26.144 28.4399 26.132 28.3199 26.108C28.2239 26.108 28.1279 26.096 28.0319 26.072C27.9839 26.072 27.9239 26.06 27.8519 26.036C27.8039 26.036 27.7559 26.024 27.7079 26C27.5399 25.976 27.4079 25.832 27.3119 25.568C27.2159 25.304 27.1679 25.004 27.1679 24.668C27.1679 24.644 27.1679 24.62 27.1679 24.596C27.1679 24.572 27.1679 24.548 27.1679 24.524C27.1679 24.5 27.1679 24.476 27.1679 24.452C27.1679 24.428 27.1679 24.404 27.1679 24.38C27.0719 24.476 26.9639 24.584 26.8439 24.704C26.7479 24.8 26.6399 24.896 26.5199 24.992C26.1839 25.28 25.7639 25.544 25.2599 25.784C24.7559 26 24.0599 26.12 23.1719 26.144C23.1719 26.144 23.1599 26.144 23.1359 26.144C23.1359 26.144 23.1239 26.144 23.0999 26.144C23.0759 26.144 23.0519 26.144 23.0279 26.144C22.2359 26.144 21.5039 25.892 20.8319 25.388C20.1839 24.86 19.7759 24.056 19.6079 22.976C19.5599 22.64 19.5239 22.328 19.4999 22.04C19.4759 21.728 19.4639 21.452 19.4639 21.212C19.4639 20.612 19.5239 20.12 19.6439 19.736C19.7399 19.328 19.8599 18.944 20.0039 18.584C20.0759 18.44 20.1479 18.296 20.2199 18.152C20.2919 18.008 20.3639 17.852 20.4359 17.684C20.5559 17.42 20.7479 17.144 21.0119 16.856C21.2999 16.544 21.6359 16.232 22.0199 15.92C22.8119 15.296 23.7719 14.708 24.8999 14.156C26.0279 13.604 27.2039 13.244 28.4279 13.076C28.6199 13.052 28.8119 13.04 29.0039 13.04C29.2199 13.016 29.4239 13.004 29.6159 13.004C29.6639 13.004 29.6999 13.004 29.7239 13.004C29.7719 13.004 29.8199 13.004 29.8679 13.004C29.8919 13.004 29.9279 13.004 29.9759 13.004C30.0239 13.004 30.0599 13.004 30.0839 13.004C30.1559 13.004 30.2279 13.004 30.2999 13.004C30.3719 13.004 30.4439 13.004 30.5159 13.004C30.6119 13.004 30.6959 13.016 30.7679 13.04C30.8639 13.04 30.9599 13.04 31.0559 13.04C31.4639 13.04 31.8359 13.064 32.1719 13.112C32.5079 13.136 32.7119 13.184 32.7839 13.256C32.8079 13.304 32.8319 13.412 32.8559 13.58C32.9039 13.748 32.9399 13.928 32.9639 14.12C32.9639 14.264 32.9639 14.408 32.9639 14.552C32.9879 14.696 32.9999 14.804 32.9999 14.876C32.9999 14.948 32.9999 15.02 32.9999 15.092C32.9999 15.14 33.0119 15.188 33.0359 15.236C33.0359 15.308 33.0359 15.38 33.0359 15.452C33.0359 15.5 33.0359 15.548 33.0359 15.596C33.0359 15.74 33.0239 15.86 32.9999 15.956C32.9759 16.028 32.9039 16.052 32.7839 16.028C32.7359 16.028 32.6399 16.004 32.4959 15.956C32.3759 15.884 32.2079 15.812 31.9919 15.74C31.7759 15.644 31.5119 15.572 31.1999 15.524C30.9119 15.452 30.5879 15.416 30.2279 15.416C30.2039 15.416 30.1799 15.416 30.1559 15.416C30.1319 15.416 30.1079 15.416 30.0839 15.416C30.0839 15.416 30.0719 15.416 30.0479 15.416C29.6639 15.416 29.2439 15.464 28.7879 15.56C28.3319 15.656 27.8759 15.8 27.4199 15.992C26.4119 16.376 25.4759 16.94 24.6119 17.684C23.7479 18.404 23.2319 19.208 23.0639 20.096C23.0399 20.384 23.0159 20.648 22.9919 20.888C22.9679 21.128 22.9559 21.344 22.9559 21.536C22.9319 22.16 23.0039 22.592 23.1719 22.832C23.3639 23.072 23.5919 23.192 23.8559 23.192C23.9519 23.192 24.0479 23.18 24.1439 23.156C24.2639 23.132 24.3719 23.108 24.4679 23.084C24.5879 23.036 24.7079 22.988 24.8279 22.94C24.9479 22.868 25.0559 22.796 25.1519 22.724C25.2239 22.676 25.2959 22.628 25.3679 22.58C25.4399 22.532 25.5119 22.484 25.5839 22.436C26.0159 22.124 26.4119 21.776 26.7719 21.392C27.1559 20.984 27.5279 20.528 27.8879 20.024C28.1519 19.64 28.4159 19.22 28.6799 18.764C28.9679 18.308 29.2679 17.804 29.5799 17.252C29.6039 17.252 29.6279 17.264 29.6519 17.288C29.6759 17.288 29.6999 17.3 29.7239 17.324C29.8199 17.348 29.9279 17.384 30.0479 17.432C30.1919 17.456 30.3359 17.468 30.4799 17.468C30.5279 17.492 30.5879 17.504 30.6599 17.504C30.7319 17.504 30.7919 17.504 30.8399 17.504C30.9119 17.504 30.9839 17.504 31.0559 17.504C31.1519 17.504 31.2479 17.504 31.3439 17.504C31.6079 17.504 31.8479 17.504 32.0639 17.504C32.3039 17.504 32.4959 17.504 32.6399 17.504C32.0879 18.752 31.5719 19.844 31.0919 20.78C30.6359 21.692 30.3959 22.316 30.3719 22.652C30.3719 22.676 30.3719 22.712 30.3719 22.76C30.3719 22.784 30.3839 22.808 30.4079 22.832ZM39.256 14.516C39.04 14.3 38.884 14.072 38.788 13.832C38.716 13.592 38.68 13.352 38.68 13.112C38.68 12.704 38.776 12.32 38.968 11.96C39.184 11.576 39.412 11.3 39.652 11.132C39.724 11.108 39.784 11.084 39.832 11.06C39.904 11.012 39.964 10.988 40.012 10.988C40.132 10.964 40.24 10.952 40.336 10.952C40.456 10.928 40.564 10.916 40.66 10.916C41.164 10.916 41.584 11.048 41.92 11.312C42.256 11.552 42.448 11.84 42.496 12.176C42.52 12.296 42.532 12.404 42.532 12.5C42.556 12.596 42.568 12.692 42.568 12.788C42.592 12.956 42.616 13.1 42.64 13.22C42.688 13.34 42.748 13.436 42.82 13.508C42.844 13.508 42.868 13.508 42.892 13.508C42.892 13.532 42.892 13.544 42.892 13.544C42.916 13.544 42.928 13.544 42.928 13.544C43 13.544 43.096 13.532 43.216 13.508C43.336 13.484 43.48 13.448 43.648 13.4C43.792 13.376 43.948 13.352 44.116 13.328C44.308 13.304 44.488 13.292 44.656 13.292C44.848 13.292 45.04 13.316 45.232 13.364C45.424 13.388 45.604 13.46 45.772 13.58C46.132 13.796 46.384 14.048 46.528 14.336C46.672 14.624 46.756 14.936 46.78 15.272C46.78 15.368 46.768 15.476 46.744 15.596C46.744 15.716 46.72 15.824 46.672 15.92C46.648 16.04 46.612 16.16 46.564 16.28C46.516 16.376 46.468 16.484 46.42 16.604C46.252 17.012 46.048 17.444 45.808 17.9C45.592 18.356 45.364 18.824 45.124 19.304C45.1 19.352 45.076 19.4 45.052 19.448C45.028 19.472 45.016 19.508 45.016 19.556C44.752 20.036 44.5 20.516 44.26 20.996C44.044 21.452 43.84 21.872 43.648 22.256C43.648 22.28 43.636 22.304 43.612 22.328C43.612 22.424 43.648 22.52 43.72 22.616C43.792 22.688 43.888 22.724 44.008 22.724C44.056 22.748 44.092 22.76 44.116 22.76C44.164 22.736 44.212 22.712 44.26 22.688C44.428 22.616 44.668 22.484 44.98 22.292C45.316 22.1 45.664 21.896 46.024 21.68C46.096 21.608 46.168 21.548 46.24 21.5C46.312 21.452 46.396 21.404 46.492 21.356C46.804 21.14 47.08 20.924 47.32 20.708C47.584 20.492 47.776 20.324 47.896 20.204C48.016 20.036 48.112 19.928 48.184 19.88C48.256 19.808 48.316 19.76 48.364 19.736C48.388 19.736 48.412 19.748 48.436 19.772C48.46 19.772 48.484 19.784 48.508 19.808C48.532 19.832 48.556 19.856 48.58 19.88C48.604 19.904 48.628 19.928 48.652 19.952C48.724 20.024 48.784 20.192 48.832 20.456C48.88 20.72 48.904 21.008 48.904 21.32C48.904 21.584 48.88 21.836 48.832 22.076C48.808 22.316 48.736 22.484 48.616 22.58C48.4 22.772 48.148 22.976 47.86 23.192C47.596 23.408 47.308 23.624 46.996 23.84C46.348 24.32 45.616 24.764 44.8 25.172C44.008 25.58 43.168 25.88 42.28 26.072C42.136 26.12 41.992 26.144 41.848 26.144C41.728 26.168 41.608 26.18 41.488 26.18C40.888 26.18 40.408 26.012 40.048 25.676C39.688 25.34 39.496 24.932 39.472 24.452C39.472 24.332 39.484 24.212 39.508 24.092C39.556 23.948 39.592 23.816 39.616 23.696C39.832 23.12 40.048 22.568 40.264 22.04C40.504 21.512 40.744 20.996 40.984 20.492C41.296 19.844 41.62 19.184 41.956 18.512C42.292 17.84 42.64 17.108 43 16.316C43.024 16.292 43.036 16.268 43.036 16.244C43.036 16.22 43.036 16.196 43.036 16.172C43.036 16.076 42.976 16.004 42.856 15.956C42.76 15.908 42.628 15.884 42.46 15.884C42.412 15.884 42.364 15.884 42.316 15.884C42.268 15.884 42.208 15.896 42.136 15.92C41.992 15.944 41.848 15.992 41.704 16.064C41.56 16.112 41.452 16.184 41.38 16.28C41.284 16.424 41.212 16.532 41.164 16.604C41.116 16.652 41.08 16.7 41.056 16.748C41.008 16.844 40.912 16.976 40.768 17.144C40.648 17.312 40.312 17.696 39.76 18.296C39.568 18.512 39.364 18.728 39.148 18.944C38.956 19.16 38.752 19.376 38.536 19.592C38.416 19.712 38.296 19.832 38.176 19.952C38.056 20.072 37.936 20.192 37.816 20.312C37.12 20.984 36.472 21.584 35.872 22.112C35.296 22.616 34.9 22.916 34.684 23.012C34.588 23.036 34.528 22.916 34.504 22.652C34.456 22.364 34.432 22.028 34.432 21.644C34.432 21.62 34.432 21.596 34.432 21.572C34.432 21.548 34.432 21.524 34.432 21.5C34.432 21.164 34.456 20.852 34.504 20.564C34.552 20.276 34.624 20.084 34.72 19.988C35.008 19.748 35.284 19.496 35.548 19.232C35.812 18.968 36.064 18.704 36.304 18.44C37.216 17.456 37.936 16.556 38.464 15.74C38.992 14.924 39.256 14.516 39.256 14.516ZM54.6323 18.44L54.6683 18.512C55.1723 18.08 55.6643 17.66 56.1443 17.252C56.6483 16.844 57.1403 16.436 57.6203 16.028C57.6923 15.98 57.7523 15.932 57.8003 15.884C57.8483 15.836 57.8963 15.8 57.9443 15.776C58.2323 15.536 58.5083 15.308 58.7723 15.092C59.0603 14.852 59.3363 14.624 59.6003 14.408C59.6963 14.336 59.8043 14.264 59.9243 14.192C60.0443 14.096 60.1763 14 60.3203 13.904C60.4643 13.808 60.6203 13.724 60.7883 13.652C60.9563 13.556 61.1363 13.472 61.3283 13.4C61.5203 13.304 61.7123 13.232 61.9043 13.184C62.0963 13.136 62.2763 13.112 62.4443 13.112C62.5403 13.112 62.6363 13.124 62.7323 13.148C62.8283 13.172 62.9243 13.196 63.0203 13.22C63.2843 13.292 63.5243 13.412 63.7403 13.58C63.9563 13.724 64.0643 13.916 64.0643 14.156C64.0643 14.18 64.0643 14.216 64.0643 14.264C64.0643 14.288 64.0643 14.312 64.0643 14.336C64.0643 14.384 64.0523 14.42 64.0283 14.444C64.0283 14.468 64.0163 14.504 63.9923 14.552C63.8963 14.792 63.7883 15.044 63.6683 15.308C63.5723 15.572 63.4523 15.848 63.3083 16.136C63.0923 16.592 62.8883 17.048 62.6963 17.504C62.5283 17.96 62.4203 18.368 62.3723 18.728C62.6843 18.488 62.9963 18.236 63.3083 17.972C63.6203 17.708 63.9323 17.444 64.2443 17.18C64.3163 17.132 64.3763 17.084 64.4243 17.036C64.4723 16.988 64.5203 16.94 64.5683 16.892C65.2403 16.34 65.9003 15.8 66.5483 15.272C67.1963 14.72 67.8083 14.228 68.3843 13.796C68.4083 13.772 68.4443 13.748 68.4922 13.724C68.5403 13.7 68.5763 13.676 68.6003 13.652C68.8163 13.532 69.0683 13.424 69.3563 13.328C69.6683 13.208 69.9803 13.148 70.2923 13.148C70.4843 13.148 70.6523 13.172 70.7963 13.22C70.9643 13.244 71.1203 13.304 71.2643 13.4C71.5043 13.544 71.6723 13.7 71.7683 13.868C71.8643 14.012 71.9123 14.18 71.9123 14.372C71.9123 14.516 71.8883 14.684 71.8403 14.876C71.7923 15.044 71.7203 15.236 71.6243 15.452C71.4563 15.836 71.2523 16.268 71.0123 16.748C70.7963 17.204 70.5683 17.684 70.3283 18.188C70.3283 18.212 70.3163 18.236 70.2923 18.26C70.2923 18.284 70.2803 18.308 70.2563 18.332C69.8003 19.268 69.3803 20.132 68.9962 20.924C68.6363 21.692 68.4563 22.136 68.4563 22.256C68.4563 22.424 68.4923 22.544 68.5643 22.616C68.6363 22.664 68.7203 22.7 68.8163 22.724C68.9123 22.724 69.0203 22.7 69.1403 22.652C69.2843 22.58 69.4283 22.496 69.5723 22.4C69.6443 22.352 69.7163 22.304 69.7883 22.256C69.8603 22.184 69.9443 22.124 70.0403 22.076C70.6403 21.668 71.2043 21.272 71.7323 20.888C72.2843 20.48 72.7643 20.12 73.1723 19.808C73.2443 19.832 73.3163 19.916 73.3883 20.06C73.4603 20.18 73.5083 20.348 73.5323 20.564C73.5323 20.612 73.5323 20.672 73.5323 20.744C73.5323 20.792 73.5323 20.84 73.5323 20.888C73.5323 21.008 73.5203 21.14 73.4963 21.284C73.4963 21.404 73.4843 21.536 73.4603 21.68C73.4123 21.944 73.3283 22.208 73.2083 22.472C73.0883 22.712 72.8843 22.94 72.5963 23.156C72.4043 23.3 72.1283 23.492 71.7683 23.732C71.4083 23.972 71.0003 24.212 70.5443 24.452C70.4243 24.524 70.2923 24.596 70.1483 24.668C70.0043 24.74 69.8603 24.824 69.7163 24.92C69.1883 25.184 68.6723 25.424 68.1683 25.64C67.6883 25.856 67.3043 25.976 67.0163 26C66.8483 26.048 66.6803 26.084 66.5123 26.108C66.3443 26.132 66.1883 26.144 66.0443 26.144C65.5643 26.144 65.1803 26.048 64.8923 25.856C64.6283 25.664 64.4483 25.448 64.3523 25.208C64.3043 25.112 64.2683 25.028 64.2443 24.956C64.2443 24.86 64.2443 24.776 64.2443 24.704C64.2443 24.656 64.2443 24.608 64.2443 24.56C64.2443 24.512 64.2563 24.476 64.2803 24.452C64.3523 24.188 64.4363 23.936 64.5323 23.696C64.6283 23.456 64.7243 23.228 64.8203 23.012C65.0363 22.436 65.2403 21.944 65.4323 21.536C65.6483 21.104 65.8043 20.804 65.9003 20.636C65.9483 20.54 65.9963 20.444 66.0443 20.348C66.0923 20.252 66.1523 20.156 66.2243 20.06C66.2483 19.988 66.2723 19.928 66.2963 19.88C66.3203 19.832 66.3443 19.784 66.3683 19.736C66.5363 19.424 66.6683 19.124 66.7643 18.836C66.8843 18.548 66.9443 18.344 66.9443 18.224C66.9443 18.176 66.9443 18.152 66.9443 18.152C66.9443 18.128 66.9323 18.104 66.9083 18.08C66.8603 18.08 66.7163 18.176 66.4763 18.368C66.2603 18.536 66.0203 18.74 65.7563 18.98C65.7323 19.004 65.7083 19.028 65.6843 19.052C65.4443 19.244 65.2283 19.436 65.0363 19.628C64.8443 19.796 64.7123 19.916 64.6403 19.988C64.3763 20.228 64.1123 20.48 63.8483 20.744C63.5843 20.984 63.3323 21.224 63.0923 21.464C62.5883 21.944 62.0843 22.436 61.5803 22.94C61.0763 23.42 60.5843 23.888 60.1043 24.344C59.8643 24.584 59.6123 24.824 59.3483 25.064C59.1083 25.28 58.8683 25.496 58.6283 25.712C58.4843 25.808 58.3283 25.892 58.1602 25.964C58.0163 26.036 57.8603 26.084 57.6923 26.108C57.6443 26.132 57.5843 26.144 57.5123 26.144C57.4643 26.144 57.4163 26.144 57.3683 26.144C57.0803 26.144 56.8283 26.072 56.6123 25.928C56.3963 25.784 56.2883 25.52 56.2883 25.136C56.2883 24.872 56.4203 24.38 56.6843 23.66C56.9723 22.916 57.5243 21.728 58.3403 20.096C58.3643 20.048 58.4123 19.94 58.4843 19.772C58.5803 19.58 58.6763 19.388 58.7723 19.196C58.7963 19.148 58.8083 19.112 58.8083 19.088C58.8323 19.064 58.8443 19.028 58.8443 18.98C58.9403 18.788 59.0243 18.608 59.0963 18.44C59.1683 18.248 59.2043 18.104 59.2043 18.008C59.2043 17.984 59.2043 17.96 59.2043 17.936C59.1803 17.936 59.1683 17.936 59.1683 17.936C59.1683 17.912 59.1683 17.9 59.1683 17.9C59.1443 17.876 59.0483 17.924 58.8803 18.044C58.7363 18.164 58.5803 18.308 58.4123 18.476C58.2683 18.596 58.1363 18.716 58.0163 18.836C57.8963 18.932 57.8003 19.004 57.7283 19.052C57.0803 19.7 56.4803 20.276 55.9283 20.78C55.4003 21.26 54.8843 21.728 54.3803 22.184C54.3563 22.208 54.3203 22.232 54.2723 22.256C54.2483 22.28 54.2243 22.304 54.2003 22.328C53.6723 22.808 53.1203 23.324 52.5443 23.876C51.9923 24.404 51.3683 25.028 50.6723 25.748C50.5763 25.844 50.4563 25.928 50.3123 26C50.1683 26.048 50.0363 26.084 49.9163 26.108C49.8682 26.132 49.8203 26.144 49.7723 26.144C49.7243 26.144 49.6763 26.144 49.6283 26.144C49.3163 26.144 49.0403 26.06 48.8003 25.892C48.5842 25.724 48.4642 25.496 48.4402 25.208C48.4402 25.16 48.4522 25.112 48.4762 25.064C48.4762 24.992 48.4882 24.932 48.5122 24.884C48.5602 24.788 48.5962 24.692 48.6202 24.596C48.6442 24.476 48.6683 24.368 48.6923 24.272C48.7163 24.224 48.7283 24.176 48.7283 24.128C48.7523 24.08 48.7763 24.032 48.8003 23.984C48.9923 23.456 49.1603 22.976 49.3043 22.544C49.4483 22.088 49.5203 21.86 49.5203 21.86C49.4243 21.908 49.3043 21.98 49.1603 22.076C49.0403 22.172 48.9083 22.28 48.7643 22.4C48.7403 22.424 48.7163 22.448 48.6923 22.472C48.6923 22.472 48.6803 22.472 48.6562 22.472C48.5122 22.616 48.3682 22.748 48.2242 22.868C48.0802 22.988 47.9602 23.072 47.8642 23.12C47.8402 22.976 47.8282 22.82 47.8282 22.652C47.8042 22.46 47.7922 22.244 47.7922 22.004C47.7922 21.908 47.7922 21.812 47.7922 21.716C47.7922 21.596 47.8042 21.488 47.8282 21.392C47.8282 21.368 47.8282 21.344 47.8282 21.32C47.8282 21.296 47.8282 21.272 47.8282 21.248C47.8522 20.912 47.8882 20.636 47.9362 20.42C47.9842 20.204 48.1282 20 48.3682 19.808C48.5842 19.592 48.8363 19.352 49.1243 19.088C49.4363 18.8 49.7483 18.5 50.0603 18.188C50.1083 18.14 50.1563 18.092 50.2043 18.044C50.2523 17.996 50.3003 17.948 50.3483 17.9C50.9723 17.3 51.5243 16.748 52.0043 16.244C52.5083 15.716 52.7603 15.452 52.7603 15.452C52.8083 15.38 52.8443 15.308 52.8683 15.236C52.9163 15.14 52.9643 15.044 53.0123 14.948C53.0363 14.876 53.0603 14.816 53.0843 14.768C53.1083 14.696 53.1323 14.624 53.1562 14.552C53.2523 14.312 53.3483 14.084 53.4443 13.868C53.5403 13.652 53.6243 13.496 53.6963 13.4H56.8643C56.7443 13.64 56.6123 13.904 56.4683 14.192C56.3483 14.456 56.2163 14.72 56.0723 14.984C56.0483 15.032 56.0243 15.08 56.0003 15.128C55.9763 15.176 55.9523 15.224 55.9283 15.272C55.6403 15.872 55.3643 16.448 55.1003 17C54.8603 17.552 54.7043 18.032 54.6323 18.44ZM85.7568 19.808C85.8768 19.76 85.9728 19.868 86.0448 20.132C86.1168 20.396 86.1528 20.696 86.1528 21.032C86.1528 21.08 86.1528 21.14 86.1528 21.212C86.1528 21.26 86.1528 21.32 86.1528 21.392C86.1288 21.656 86.0808 21.92 86.0088 22.184C85.9368 22.424 85.8528 22.592 85.7568 22.688C85.5648 22.88 85.3368 23.084 85.0728 23.3C84.8328 23.492 84.5688 23.696 84.2808 23.912C83.4648 24.488 82.4808 25.016 81.3288 25.496C80.2008 25.952 79.0248 26.192 77.8008 26.216C77.3928 26.216 76.9848 26.18 76.5768 26.108C76.1688 26.036 75.7608 25.94 75.3528 25.82C74.2728 25.412 73.6248 24.812 73.4088 24.02C73.2168 23.228 73.1088 22.232 73.0848 21.032C73.0608 20.936 73.0488 20.84 73.0488 20.744C73.0488 20.624 73.0488 20.504 73.0488 20.384C73.0248 19.112 73.4568 17.888 74.3448 16.712C75.2328 15.512 76.5888 14.504 78.4128 13.688C79.0128 13.424 79.6008 13.232 80.1768 13.112C80.7528 12.968 81.2928 12.896 81.7968 12.896C82.7568 12.896 83.5368 13.136 84.1368 13.616C84.7368 14.072 85.0368 14.768 85.0368 15.704C85.0368 15.848 85.0368 15.992 85.0368 16.136C85.0368 16.28 85.0128 16.436 84.9648 16.604C84.8208 17.42 84.4128 18.152 83.7408 18.8C83.0928 19.424 82.3848 19.964 81.6168 20.42C81.3048 20.588 81.0048 20.744 80.7168 20.888C80.4288 21.008 80.1528 21.116 79.8888 21.212C79.3128 21.452 78.8208 21.608 78.4128 21.68C78.0048 21.728 77.6688 21.764 77.4048 21.788C77.2368 21.812 77.0808 21.836 76.9368 21.86C76.8168 21.884 76.7088 21.932 76.6128 22.004C76.4928 22.076 76.4448 22.172 76.4688 22.292C76.4928 22.412 76.5768 22.544 76.7208 22.688C76.8888 22.88 77.1528 23.06 77.5128 23.228C77.8728 23.396 78.2808 23.48 78.7368 23.48C78.7848 23.48 78.8208 23.48 78.8448 23.48C78.8928 23.48 78.9288 23.468 78.9528 23.444C79.0008 23.444 79.0368 23.444 79.0608 23.444C79.1088 23.444 79.1448 23.444 79.1688 23.444C79.4568 23.42 79.9968 23.252 80.7888 22.94C81.5808 22.628 82.4208 22.208 83.3088 21.68C83.7408 21.416 84.1608 21.128 84.5688 20.816C85.0008 20.504 85.3968 20.168 85.7568 19.808ZM76.3248 19.592C77.5008 19.424 78.5688 19.1 79.5288 18.62C80.5128 18.14 81.1728 17.636 81.5088 17.108C81.5808 16.988 81.6288 16.88 81.6528 16.784C81.7008 16.664 81.7248 16.556 81.7248 16.46C81.7248 16.34 81.7008 16.22 81.6528 16.1C81.6048 15.98 81.5208 15.872 81.4008 15.776C81.3048 15.68 81.1968 15.608 81.0768 15.56C80.9568 15.512 80.8248 15.488 80.6808 15.488C80.4408 15.488 80.1768 15.548 79.8888 15.668C79.6248 15.764 79.3488 15.896 79.0608 16.064C78.5328 16.424 78.0168 16.892 77.5128 17.468C77.0328 18.02 76.6728 18.596 76.4328 19.196C76.4088 19.268 76.3848 19.34 76.3608 19.412C76.3608 19.46 76.3488 19.52 76.3248 19.592ZM90.3139 14.768C90.3379 14.696 90.3619 14.636 90.3859 14.588C90.4099 14.516 90.4339 14.444 90.4579 14.372C90.5059 14.3 90.5419 14.228 90.5659 14.156C90.5899 14.084 90.6139 14.012 90.6379 13.94C90.7099 13.748 90.7819 13.592 90.8539 13.472C90.9499 13.352 91.0459 13.316 91.1419 13.364H94.1659C94.1179 13.46 93.9739 13.772 93.7339 14.3C93.4939 14.828 93.2299 15.392 92.9419 15.992C92.6299 16.664 92.3419 17.276 92.0779 17.828C91.8379 18.356 91.7179 18.62 91.7179 18.62C91.7179 18.644 91.7179 18.656 91.7179 18.656C91.7179 18.656 91.7179 18.668 91.7179 18.692C91.7179 18.74 91.7779 18.752 91.8979 18.728C92.0419 18.704 92.3299 18.512 92.7619 18.152C93.0259 17.936 93.4219 17.624 93.9499 17.216C94.4779 16.808 95.0419 16.388 95.6419 15.956C95.6899 15.908 95.7379 15.872 95.7859 15.848C95.8339 15.824 95.8819 15.788 95.9299 15.74C96.6259 15.236 97.2859 14.768 97.9099 14.336C98.5339 13.904 98.9779 13.628 99.2419 13.508C99.4819 13.388 99.7219 13.304 99.9619 13.256C100.202 13.184 100.454 13.148 100.718 13.148C100.91 13.148 101.102 13.172 101.294 13.22C101.51 13.244 101.726 13.316 101.942 13.436C102.086 13.508 102.182 13.616 102.23 13.76C102.302 13.904 102.338 14.072 102.338 14.264C102.338 14.48 102.302 14.732 102.23 15.02C102.158 15.308 102.062 15.596 101.942 15.884C101.894 16.028 101.834 16.184 101.762 16.352C101.69 16.496 101.618 16.628 101.546 16.748C101.498 16.844 101.45 16.94 101.402 17.036C101.378 17.132 101.342 17.216 101.294 17.288C101.15 17.576 100.982 17.9 100.79 18.26C100.598 18.62 100.406 19.004 100.214 19.412C100.166 19.484 100.118 19.568 100.07 19.664C100.022 19.736 99.9739 19.82 99.9259 19.916C99.7099 20.324 99.5059 20.732 99.3139 21.14C99.1459 21.548 99.0139 21.92 98.9179 22.256C98.9179 22.256 98.9179 22.268 98.9179 22.292C98.9179 22.292 98.9179 22.304 98.9179 22.328C98.8939 22.352 98.8819 22.376 98.8819 22.4C98.8819 22.424 98.8819 22.448 98.8819 22.472C98.8819 22.52 98.8939 22.568 98.9179 22.616C98.9419 22.664 99.0019 22.7 99.0979 22.724C99.2179 22.724 99.3619 22.688 99.5299 22.616C99.6979 22.544 99.9379 22.424 100.25 22.256C100.274 22.232 100.298 22.208 100.322 22.184C100.37 22.16 100.418 22.136 100.466 22.112C100.586 22.04 100.718 21.956 100.862 21.86C101.006 21.764 101.138 21.668 101.258 21.572C101.906 21.116 102.47 20.696 102.95 20.312C103.454 19.928 103.706 19.736 103.706 19.736C103.73 19.736 103.766 19.736 103.814 19.736C103.862 19.736 103.91 19.772 103.958 19.844C104.006 19.916 104.054 20.048 104.102 20.24C104.15 20.432 104.174 20.72 104.174 21.104C104.174 21.56 104.102 21.968 103.958 22.328C103.838 22.664 103.61 22.94 103.274 23.156C103.13 23.252 102.842 23.444 102.41 23.732C102.002 23.996 101.522 24.296 100.97 24.632C100.682 24.8 100.382 24.968 100.07 25.136C99.7819 25.28 99.4819 25.424 99.1699 25.568C98.7619 25.736 98.3539 25.868 97.9459 25.964C97.5619 26.06 97.2019 26.108 96.8659 26.108C96.1459 26.108 95.6419 26 95.3539 25.784C95.0659 25.568 94.9099 25.256 94.8859 24.848C94.8859 24.632 94.9219 24.392 94.9939 24.128C95.0659 23.864 95.1499 23.576 95.2459 23.264C95.3419 23.024 95.4499 22.772 95.5699 22.508C95.6899 22.244 95.8099 21.968 95.9299 21.68C95.9539 21.608 95.9779 21.548 96.0019 21.5C96.0499 21.428 96.0859 21.356 96.1099 21.284C96.3979 20.66 96.6619 20.108 96.9019 19.628C97.1659 19.124 97.2979 18.872 97.2979 18.872C97.6099 18.2 97.5979 17.96 97.2619 18.152C96.9499 18.32 96.5659 18.596 96.1099 18.98C96.0859 18.98 96.0619 18.992 96.0379 19.016C96.0379 19.016 96.0379 19.028 96.0379 19.052C95.9899 19.076 95.9419 19.112 95.8939 19.16C95.8459 19.184 95.7979 19.22 95.7499 19.268C95.3659 19.58 94.7179 20.12 93.8059 20.888C92.9179 21.656 91.9579 22.472 90.9259 23.336C90.8779 23.36 90.8179 23.396 90.7459 23.444C90.6979 23.492 90.6499 23.54 90.6019 23.588C90.1219 23.972 89.6419 24.356 89.1619 24.74C88.7059 25.124 88.2739 25.484 87.8659 25.82C87.7939 25.892 87.7099 25.952 87.6139 26C87.5419 26.024 87.4579 26.048 87.3619 26.072C87.2659 26.12 87.1699 26.144 87.0739 26.144C87.0019 26.168 86.9299 26.18 86.8579 26.18C86.5459 26.18 86.2939 26.084 86.1019 25.892C85.9099 25.676 85.8139 25.388 85.8139 25.028C85.8139 24.908 85.8259 24.8 85.8499 24.704C85.8499 24.584 85.8739 24.464 85.9219 24.344C85.9219 24.248 85.9339 24.164 85.9579 24.092C86.0059 23.996 86.0419 23.9 86.0659 23.804C86.2099 23.372 86.3539 22.976 86.4979 22.616C86.6419 22.256 86.7619 21.98 86.8579 21.788H86.7859C86.7859 21.788 86.7139 21.86 86.5699 22.004C86.4499 22.124 86.3059 22.256 86.1379 22.4C86.1139 22.424 86.0899 22.448 86.0659 22.472C86.0419 22.472 86.0179 22.484 85.9939 22.508C85.8499 22.652 85.7179 22.772 85.5979 22.868C85.4539 22.964 85.3459 23.012 85.2739 23.012C85.2259 23.012 85.2019 22.94 85.2019 22.796C85.1779 22.628 85.1539 22.448 85.1299 22.256C85.1299 22.136 85.1299 22.028 85.1299 21.932C85.1299 21.812 85.1299 21.716 85.1299 21.644C85.1299 21.188 85.1419 20.852 85.1659 20.636C85.1899 20.396 85.2739 20.18 85.4179 19.988C85.4659 19.94 85.5139 19.892 85.5619 19.844C85.6099 19.796 85.6579 19.748 85.7059 19.7C85.9219 19.556 86.1619 19.376 86.4259 19.16C86.6899 18.92 86.9539 18.68 87.2179 18.44C87.4099 18.272 87.5899 18.092 87.7579 17.9C87.9499 17.708 88.1299 17.528 88.2979 17.36C88.8019 16.808 89.2339 16.292 89.5939 15.812C89.9779 15.332 90.2179 14.984 90.3139 14.768ZM111.445 12.176C111.469 12.176 111.481 12.176 111.481 12.176C111.505 12.176 111.529 12.176 111.553 12.176C111.577 12.176 111.601 12.176 111.625 12.176C112.777 12.152 113.653 12.452 114.253 13.076C114.877 13.7 115.273 14.396 115.441 15.164C115.489 15.308 115.513 15.452 115.513 15.596C115.537 15.74 115.549 15.884 115.549 16.028C115.549 16.436 115.477 16.808 115.333 17.144C115.213 17.48 115.033 17.744 114.793 17.936C114.889 18.152 114.949 18.356 114.973 18.548C115.021 18.716 115.045 18.884 115.045 19.052C115.045 19.292 115.009 19.52 114.937 19.736C114.865 19.928 114.781 20.132 114.685 20.348C114.661 20.396 114.637 20.444 114.613 20.492C114.589 20.54 114.565 20.588 114.541 20.636C114.589 20.66 114.625 20.684 114.649 20.708C114.697 20.708 114.745 20.708 114.793 20.708C114.841 20.732 114.877 20.744 114.901 20.744C114.949 20.744 114.997 20.744 115.045 20.744C115.381 20.744 115.705 20.66 116.017 20.492C116.353 20.324 116.701 20.096 117.061 19.808C117.133 19.712 117.193 19.784 117.241 20.024C117.289 20.264 117.313 20.552 117.313 20.888C117.313 20.96 117.313 21.032 117.313 21.104C117.313 21.176 117.313 21.248 117.313 21.32C117.289 21.656 117.241 21.968 117.169 22.256C117.121 22.52 117.049 22.688 116.953 22.76C116.761 22.952 116.497 23.12 116.161 23.264C115.825 23.408 115.465 23.516 115.081 23.588C114.985 23.588 114.889 23.6 114.793 23.624C114.721 23.624 114.637 23.624 114.541 23.624C114.349 23.624 114.157 23.612 113.965 23.588C113.797 23.54 113.653 23.468 113.533 23.372C112.765 24.332 111.889 25.052 110.905 25.532C109.921 26.012 108.841 26.24 107.665 26.216C107.449 26.216 107.221 26.204 106.981 26.18C106.765 26.156 106.537 26.108 106.297 26.036C105.553 25.892 104.869 25.484 104.245 24.812C103.645 24.14 103.345 22.952 103.345 21.248C103.345 21.032 103.357 20.816 103.381 20.6C103.381 20.36 103.393 20.12 103.417 19.88C103.465 19.472 103.561 19.04 103.705 18.584C103.825 18.104 103.981 17.624 104.173 17.144C104.725 15.944 105.601 14.84 106.801 13.832C108.001 12.8 109.549 12.248 111.445 12.176ZM110.905 21.896C110.881 21.824 110.845 21.74 110.797 21.644C110.773 21.548 110.737 21.44 110.689 21.32C110.617 21.176 110.557 21.008 110.509 20.816C110.461 20.624 110.437 20.42 110.437 20.204C110.437 20.084 110.437 19.976 110.437 19.88C110.461 19.76 110.485 19.64 110.509 19.52C110.581 19.184 110.701 18.896 110.869 18.656C111.037 18.416 111.205 18.2 111.373 18.008C111.541 17.84 111.697 17.696 111.841 17.576C112.009 17.456 112.141 17.336 112.237 17.216C112.261 17.168 112.273 17.12 112.273 17.072C112.297 17.024 112.309 16.976 112.309 16.928C112.285 16.496 112.141 16.136 111.877 15.848C111.613 15.56 111.253 15.416 110.797 15.416C110.413 15.416 109.969 15.56 109.465 15.848C108.961 16.136 108.445 16.616 107.917 17.288C107.677 17.6 107.461 17.996 107.269 18.476C107.077 18.932 106.933 19.412 106.837 19.916C106.813 20.108 106.789 20.3 106.765 20.492C106.741 20.66 106.729 20.84 106.729 21.032C106.729 21.416 106.777 21.776 106.873 22.112C106.969 22.424 107.137 22.676 107.377 22.868C107.401 22.868 107.425 22.88 107.449 22.904C107.473 22.928 107.497 22.94 107.521 22.94C107.641 23.012 107.797 23.072 107.989 23.12C108.181 23.168 108.385 23.192 108.601 23.192C108.769 23.192 108.937 23.18 109.105 23.156C109.297 23.132 109.477 23.084 109.645 23.012C109.861 22.916 110.077 22.784 110.293 22.616C110.509 22.424 110.713 22.184 110.905 21.896ZM121.205 14.516C120.989 14.3 120.833 14.072 120.737 13.832C120.665 13.592 120.629 13.352 120.629 13.112C120.629 12.704 120.725 12.32 120.917 11.96C121.133 11.576 121.361 11.3 121.601 11.132C121.673 11.108 121.733 11.084 121.781 11.06C121.853 11.012 121.913 10.988 121.961 10.988C122.081 10.964 122.189 10.952 122.285 10.952C122.405 10.928 122.513 10.916 122.609 10.916C123.113 10.916 123.533 11.048 123.869 11.312C124.205 11.552 124.397 11.84 124.445 12.176C124.469 12.296 124.481 12.404 124.481 12.5C124.505 12.596 124.517 12.692 124.517 12.788C124.541 12.956 124.565 13.1 124.589 13.22C124.637 13.34 124.697 13.436 124.769 13.508C124.793 13.508 124.817 13.508 124.841 13.508C124.841 13.532 124.841 13.544 124.841 13.544C124.865 13.544 124.877 13.544 124.877 13.544C124.949 13.544 125.045 13.532 125.165 13.508C125.285 13.484 125.429 13.448 125.597 13.4C125.741 13.376 125.897 13.352 126.065 13.328C126.257 13.304 126.437 13.292 126.605 13.292C126.797 13.292 126.989 13.316 127.181 13.364C127.373 13.388 127.553 13.46 127.721 13.58C128.081 13.796 128.333 14.048 128.477 14.336C128.621 14.624 128.705 14.936 128.729 15.272C128.729 15.368 128.717 15.476 128.693 15.596C128.693 15.716 128.669 15.824 128.621 15.92C128.597 16.04 128.561 16.16 128.513 16.28C128.465 16.376 128.417 16.484 128.369 16.604C128.201 17.012 127.997 17.444 127.757 17.9C127.541 18.356 127.313 18.824 127.073 19.304C127.049 19.352 127.025 19.4 127.001 19.448C126.977 19.472 126.965 19.508 126.965 19.556C126.701 20.036 126.449 20.516 126.209 20.996C125.993 21.452 125.789 21.872 125.597 22.256C125.597 22.28 125.585 22.304 125.561 22.328C125.561 22.424 125.597 22.52 125.669 22.616C125.741 22.688 125.837 22.724 125.957 22.724C126.005 22.748 126.041 22.76 126.065 22.76C126.113 22.736 126.161 22.712 126.209 22.688C126.377 22.616 126.617 22.484 126.929 22.292C127.265 22.1 127.613 21.896 127.973 21.68C128.045 21.608 128.117 21.548 128.189 21.5C128.261 21.452 128.345 21.404 128.441 21.356C128.753 21.14 129.029 20.924 129.269 20.708C129.533 20.492 129.725 20.324 129.845 20.204C129.965 20.036 130.061 19.928 130.133 19.88C130.205 19.808 130.265 19.76 130.313 19.736C130.337 19.736 130.361 19.748 130.385 19.772C130.409 19.772 130.433 19.784 130.457 19.808C130.481 19.832 130.505 19.856 130.529 19.88C130.553 19.904 130.577 19.928 130.601 19.952C130.673 20.024 130.733 20.192 130.781 20.456C130.829 20.72 130.853 21.008 130.853 21.32C130.853 21.584 130.829 21.836 130.781 22.076C130.757 22.316 130.685 22.484 130.565 22.58C130.349 22.772 130.097 22.976 129.809 23.192C129.545 23.408 129.257 23.624 128.945 23.84C128.297 24.32 127.565 24.764 126.749 25.172C125.957 25.58 125.117 25.88 124.229 26.072C124.085 26.12 123.941 26.144 123.797 26.144C123.677 26.168 123.557 26.18 123.437 26.18C122.837 26.18 122.357 26.012 121.997 25.676C121.637 25.34 121.445 24.932 121.421 24.452C121.421 24.332 121.433 24.212 121.457 24.092C121.505 23.948 121.541 23.816 121.565 23.696C121.781 23.12 121.997 22.568 122.213 22.04C122.453 21.512 122.693 20.996 122.933 20.492C123.245 19.844 123.569 19.184 123.905 18.512C124.241 17.84 124.589 17.108 124.949 16.316C124.973 16.292 124.985 16.268 124.985 16.244C124.985 16.22 124.985 16.196 124.985 16.172C124.985 16.076 124.925 16.004 124.805 15.956C124.709 15.908 124.577 15.884 124.409 15.884C124.361 15.884 124.313 15.884 124.265 15.884C124.217 15.884 124.157 15.896 124.085 15.92C123.941 15.944 123.797 15.992 123.653 16.064C123.509 16.112 123.401 16.184 123.329 16.28C123.233 16.424 123.161 16.532 123.113 16.604C123.065 16.652 123.029 16.7 123.005 16.748C122.957 16.844 122.861 16.976 122.717 17.144C122.597 17.312 122.261 17.696 121.709 18.296C121.517 18.512 121.313 18.728 121.097 18.944C120.905 19.16 120.701 19.376 120.485 19.592C120.365 19.712 120.245 19.832 120.125 19.952C120.005 20.072 119.885 20.192 119.765 20.312C119.069 20.984 118.421 21.584 117.821 22.112C117.245 22.616 116.849 22.916 116.633 23.012C116.537 23.036 116.477 22.916 116.453 22.652C116.405 22.364 116.381 22.028 116.381 21.644C116.381 21.62 116.381 21.596 116.381 21.572C116.381 21.548 116.381 21.524 116.381 21.5C116.381 21.164 116.405 20.852 116.453 20.564C116.501 20.276 116.573 20.084 116.669 19.988C116.957 19.748 117.233 19.496 117.497 19.232C117.761 18.968 118.013 18.704 118.253 18.44C119.165 17.456 119.885 16.556 120.413 15.74C120.941 14.924 121.205 14.516 121.205 14.516Z" fill="white"/>
</svg>
